<svg id="Layer_1" data-name="Layer 1" xmlns="http://www.w3.org/2000/svg" viewBox="0 0 850.39 566.93"><defs><style>.cls-1{fill:#00a997;}.cls-2{fill:#fff;}</style></defs><rect class="cls-1" width="850.39" height="566.93"/><path class="cls-2" d="M336.3,176.75V390.18H481.08c58,0,73.52-40.2,73.52-63.92,0-25.56-11.52-43-33.85-51.9C531.33,268.69,545,258,545,231.31c0-24.87-10.82-54.56-62.45-54.56Zm132,82.79H440.54l-41.09,41.1h74.1c13.73,0,30.1,4.32,30.1,24.8,0,22.17-14,26.6-36.55,26.6H385.46V214.84h77.27c27.47,0,33.09,8.56,33.09,21.4,0,17.31-11.89,23.3-27.51,23.3M595,176.75V390.18H746.5l43.06-43H644.17V176.75Zm-312.3,0V390.18H233.56V300.64H124l42.88-42.93h66.68v-81ZM110,390.18H60.84V176.75H110Z"/></svg>